<svg version="1.1" xmlns="http://www.w3.org/2000/svg" xmlns:xlink="http://www.w3.org/1999/xlink" x="0px" y="0px" width="30px" height="30px" viewBox="0 0 1000 1000" enable-background="new 0 0 1000 1000" xml:space="preserve">
	<path d="M978.521,528.42l17.945-450.189c0.876-21.982-16.393-40.685-38.376-41.562l-41.294-1.646L978.521,528.42z" />
	<path d="M546.661,20.271L153.344,4.593c-21.982-0.876-40.685,16.393-41.562,38.375l-1.27,31.866L546.661,20.271z" />
	<path d="M987.305,848.361L887.328,49.205c-2.731-21.83-22.826-37.456-44.656-34.725L43.515,114.458 c-21.83,2.731-37.456,22.826-34.725,44.656l99.978,799.155c2.731,21.83,22.826,37.456,44.656,34.725l799.156-99.976 C974.41,890.286,990.036,870.191,987.305,848.361z M680.302,699.283c-44.558,24.418-94.822,14.677-112.318-21.781 c-17.495-36.456,4.517-85.814,49.076-110.236c23.061-12.641,47.763-16.113,68.595-11.482l-34.998-279.771l-278.266,89.959 l42.975,343.506l-0.309,0.039c4.298,32.821-17.055,71.239-54.411,91.713c-44.559,24.419-94.823,14.675-112.319-21.781 c-17.495-36.458,4.517-85.815,49.075-110.237c23.063-12.64,47.764-16.115,68.598-11.483l-43.638-348.814l360.713-116.611 l51.946,415.23l-0.309,0.04C739.011,640.394,717.659,678.811,680.302,699.283z" />
</svg>