<svg version="1.1" xmlns="http://www.w3.org/2000/svg" xmlns:xlink="http://www.w3.org/1999/xlink" x="0px" y="0px" width="30px" height="30px" viewBox="0 0 1000 1000" enable-background="new 0 0 1000 1000" xml:space="preserve">
	<path d="M709.504,545.735c-23.633,18.606-49.565,33.927-77.472,45.73c-41.851,17.701-86.273,26.677-132.032,26.677 c-45.759,0-90.181-8.976-132.032-26.677c-27.906-11.804-53.839-27.124-77.472-45.73C119,624.769,0,797.989,0,1000h1000 C1000,797.989,881.001,624.769,709.504,545.735z" />
	<path d="M779.153,278.988c0,154.174-124.98,279.155-279.153,279.155S220.847,433.162,220.847,278.988 c0-154.17,124.98-279.152,279.153-279.152S779.153,124.818,779.153,278.988z" />
</svg>