<svg version="1.1" xmlns="http://www.w3.org/2000/svg" xmlns:xlink="http://www.w3.org/1999/xlink" x="0px" y="0px" width="1000px" height="1000px" viewBox="0 0 1000 1000" enable-background="new 0 0 1000 1000" xml:space="preserve"><path d="M50-0.249c-27.506,0-50,22.498-50,49.975v900.547c0,27.491,22.494,49.975,50,49.975h900 c27.506,0,50-22.482,50-49.975V49.726c0-27.477-22.494-49.975-50-49.975H50z" /><rect x="102.673" y="-0.249" fill="#FFFFFF" width="40" height="1000.497" /><path fill="#FFFFFF" d="M572.032,135.208c-201.741,0-365.118,163.436-365.118,364.727c0,200.727,163.377,364.856,365.118,364.856 c200.986,0,363.726-164.129,363.726-364.856C935.758,298.644,773.019,135.208,572.032,135.208z" /><path d="M571.496,592.279c-51.001,0-92.35-41.497-92.35-92.301c0-50.906,41.349-92.255,92.35-92.255 c50.84,0,92.016,41.35,92.016,92.255C663.514,550.784,622.336,592.279,571.496,592.279z" /><path fill="#FFFFFF" d="M571.388,522.345c-12.365,0-22.373-10.063-22.373-22.36 c0-12.336,10.008-22.355,22.373-22.355c12.305,0,22.282,10.02,22.282,22.355C593.67,512.282,583.692,522.345,571.388,522.345z" /></svg>