<svg version="1.1" xmlns="http://www.w3.org/2000/svg" xmlns:xlink="http://www.w3.org/1999/xlink" x="0px" y="0px" width="30px" height="30px" viewBox="0 0 1000 1000" enable-background="new 0 0 1000 1000" xml:space="preserve">
	<path d="M50-1C22.5-1,0,21.5,0,49v901c0,27.5,22.5,50,50,50h900c27.5,0,50-22.5,50-50V49c0-27.5-22.5-50-50-50H50z M499,913.695 c-228.202,0-413.195-184.994-413.195-413.195C85.805,272.298,270.798,87.305,499,87.305c228.201,0,413.195,184.994,413.195,413.195 C912.195,728.701,727.201,913.695,499,913.695z" />
	<path d="M500,395.935c-57.474,0-104.065,46.592-104.065,104.065S442.526,604.065,500,604.065S604.065,557.474,604.065,500 S557.474,395.935,500,395.935z M500,522.765c-12.573,0-22.765-10.192-22.765-22.765c0-12.573,10.192-22.765,22.765-22.765 c12.572,0,22.765,10.192,22.765,22.765C522.765,512.572,512.572,522.765,500,522.765z" />
</svg>